<mxfile host="app.diagrams.net" modified="2023-02-27T10:10:36.310Z" agent="5.0 (Windows NT 10.0; Win64; x64) AppleWebKit/537.36 (KHTML, like Gecko) Chrome/110.0.0.0 Safari/537.36" etag="DkXwKBfP5iBFZ5uJYZzK" version="20.5.1" type="github">
  <diagram id="cPNhERo3y8YZQ6p_yw8e" name="Page-1">
    <mxGraphModel dx="2607" dy="1560" grid="1" gridSize="10" guides="1" tooltips="1" connect="1" arrows="1" fold="1" page="1" pageScale="1" pageWidth="3300" pageHeight="4681" math="0" shadow="0">
      <root>
        <mxCell id="0" />
        <mxCell id="1" parent="0" />
        <mxCell id="4xruHLtJ7g0Ft4R3j1DA-3" value="" style="rounded=0;orthogonalLoop=1;jettySize=auto;html=1;endArrow=none;endFill=0;fontSize=50;" edge="1" parent="1" source="4xruHLtJ7g0Ft4R3j1DA-1" target="4xruHLtJ7g0Ft4R3j1DA-2">
          <mxGeometry relative="1" as="geometry" />
        </mxCell>
        <mxCell id="4xruHLtJ7g0Ft4R3j1DA-5" value="" style="edgeStyle=none;rounded=0;orthogonalLoop=1;jettySize=auto;html=1;endArrow=none;endFill=0;fontSize=50;" edge="1" parent="1" source="4xruHLtJ7g0Ft4R3j1DA-1" target="4xruHLtJ7g0Ft4R3j1DA-4">
          <mxGeometry relative="1" as="geometry" />
        </mxCell>
        <mxCell id="4xruHLtJ7g0Ft4R3j1DA-1" value="1" style="ellipse;whiteSpace=wrap;html=1;aspect=fixed;fillColor=#d5e8d4;strokeColor=#82b366;fontSize=50;" vertex="1" parent="1">
          <mxGeometry x="1410" y="646" width="80" height="80" as="geometry" />
        </mxCell>
        <mxCell id="4xruHLtJ7g0Ft4R3j1DA-27" style="edgeStyle=none;rounded=0;orthogonalLoop=1;jettySize=auto;html=1;exitX=1;exitY=0;exitDx=0;exitDy=0;endArrow=none;endFill=0;fontSize=50;" edge="1" parent="1" source="4xruHLtJ7g0Ft4R3j1DA-2" target="4xruHLtJ7g0Ft4R3j1DA-26">
          <mxGeometry relative="1" as="geometry" />
        </mxCell>
        <mxCell id="4xruHLtJ7g0Ft4R3j1DA-2" value="2" style="ellipse;whiteSpace=wrap;html=1;aspect=fixed;fillColor=#d5e8d4;strokeColor=#82b366;fontSize=50;" vertex="1" parent="1">
          <mxGeometry x="1700" y="596" width="80" height="80" as="geometry" />
        </mxCell>
        <mxCell id="4xruHLtJ7g0Ft4R3j1DA-7" value="" style="edgeStyle=none;rounded=0;orthogonalLoop=1;jettySize=auto;html=1;endArrow=none;endFill=0;fontSize=50;" edge="1" parent="1" source="4xruHLtJ7g0Ft4R3j1DA-4" target="4xruHLtJ7g0Ft4R3j1DA-6">
          <mxGeometry relative="1" as="geometry" />
        </mxCell>
        <mxCell id="4xruHLtJ7g0Ft4R3j1DA-17" value="" style="edgeStyle=none;rounded=0;orthogonalLoop=1;jettySize=auto;html=1;endArrow=none;endFill=0;fontSize=50;" edge="1" parent="1" source="4xruHLtJ7g0Ft4R3j1DA-4" target="4xruHLtJ7g0Ft4R3j1DA-16">
          <mxGeometry relative="1" as="geometry" />
        </mxCell>
        <mxCell id="4xruHLtJ7g0Ft4R3j1DA-25" value="" style="edgeStyle=none;rounded=0;orthogonalLoop=1;jettySize=auto;html=1;endArrow=none;endFill=0;fontSize=50;" edge="1" parent="1" source="4xruHLtJ7g0Ft4R3j1DA-4" target="4xruHLtJ7g0Ft4R3j1DA-24">
          <mxGeometry relative="1" as="geometry" />
        </mxCell>
        <mxCell id="4xruHLtJ7g0Ft4R3j1DA-4" value="&lt;font style=&quot;font-size: 50px;&quot;&gt;0&lt;/font&gt;" style="ellipse;whiteSpace=wrap;html=1;aspect=fixed;fillColor=#f8cecc;strokeColor=#b85450;fontSize=50;" vertex="1" parent="1">
          <mxGeometry x="1290" y="766" width="80" height="80" as="geometry" />
        </mxCell>
        <mxCell id="4xruHLtJ7g0Ft4R3j1DA-9" value="" style="edgeStyle=none;rounded=0;orthogonalLoop=1;jettySize=auto;html=1;endArrow=none;endFill=0;fontSize=50;" edge="1" parent="1" source="4xruHLtJ7g0Ft4R3j1DA-6" target="4xruHLtJ7g0Ft4R3j1DA-8">
          <mxGeometry relative="1" as="geometry" />
        </mxCell>
        <mxCell id="4xruHLtJ7g0Ft4R3j1DA-13" value="" style="edgeStyle=none;rounded=0;orthogonalLoop=1;jettySize=auto;html=1;endArrow=none;endFill=0;fontSize=50;" edge="1" parent="1" source="4xruHLtJ7g0Ft4R3j1DA-6" target="4xruHLtJ7g0Ft4R3j1DA-12">
          <mxGeometry relative="1" as="geometry" />
        </mxCell>
        <mxCell id="4xruHLtJ7g0Ft4R3j1DA-34" value="" style="edgeStyle=none;rounded=0;orthogonalLoop=1;jettySize=auto;html=1;endArrow=none;endFill=0;dashed=1;dashPattern=1 4;strokeWidth=5;fontSize=50;" edge="1" parent="1" source="4xruHLtJ7g0Ft4R3j1DA-6" target="4xruHLtJ7g0Ft4R3j1DA-33">
          <mxGeometry relative="1" as="geometry" />
        </mxCell>
        <mxCell id="4xruHLtJ7g0Ft4R3j1DA-6" value="1" style="ellipse;whiteSpace=wrap;html=1;aspect=fixed;fillColor=#d5e8d4;strokeColor=#82b366;fontSize=50;" vertex="1" parent="1">
          <mxGeometry x="1340" y="960" width="80" height="80" as="geometry" />
        </mxCell>
        <mxCell id="4xruHLtJ7g0Ft4R3j1DA-11" value="" style="edgeStyle=none;rounded=0;orthogonalLoop=1;jettySize=auto;html=1;endArrow=none;endFill=0;fontSize=50;" edge="1" parent="1" source="4xruHLtJ7g0Ft4R3j1DA-8" target="4xruHLtJ7g0Ft4R3j1DA-10">
          <mxGeometry relative="1" as="geometry" />
        </mxCell>
        <mxCell id="4xruHLtJ7g0Ft4R3j1DA-8" value="2" style="ellipse;whiteSpace=wrap;html=1;aspect=fixed;fillColor=#d5e8d4;strokeColor=#82b366;fontSize=50;" vertex="1" parent="1">
          <mxGeometry x="1590" y="1040" width="80" height="80" as="geometry" />
        </mxCell>
        <mxCell id="4xruHLtJ7g0Ft4R3j1DA-15" style="edgeStyle=none;rounded=0;orthogonalLoop=1;jettySize=auto;html=1;exitX=1;exitY=0.5;exitDx=0;exitDy=0;endArrow=none;endFill=0;fontSize=50;" edge="1" parent="1" source="4xruHLtJ7g0Ft4R3j1DA-10" target="4xruHLtJ7g0Ft4R3j1DA-14">
          <mxGeometry relative="1" as="geometry" />
        </mxCell>
        <mxCell id="4xruHLtJ7g0Ft4R3j1DA-10" value="3" style="ellipse;whiteSpace=wrap;html=1;aspect=fixed;fillColor=#d5e8d4;strokeColor=#82b366;fontSize=50;" vertex="1" parent="1">
          <mxGeometry x="1810" y="1006" width="80" height="80" as="geometry" />
        </mxCell>
        <mxCell id="4xruHLtJ7g0Ft4R3j1DA-12" value="2" style="ellipse;whiteSpace=wrap;html=1;aspect=fixed;fillColor=#d5e8d4;strokeColor=#82b366;fontSize=50;" vertex="1" parent="1">
          <mxGeometry x="1540" y="766" width="80" height="80" as="geometry" />
        </mxCell>
        <mxCell id="4xruHLtJ7g0Ft4R3j1DA-31" value="" style="edgeStyle=none;rounded=0;orthogonalLoop=1;jettySize=auto;html=1;endArrow=none;endFill=0;fontSize=50;" edge="1" parent="1" source="4xruHLtJ7g0Ft4R3j1DA-14" target="4xruHLtJ7g0Ft4R3j1DA-30">
          <mxGeometry relative="1" as="geometry" />
        </mxCell>
        <mxCell id="4xruHLtJ7g0Ft4R3j1DA-35" style="edgeStyle=none;rounded=0;orthogonalLoop=1;jettySize=auto;html=1;entryX=1;entryY=0.5;entryDx=0;entryDy=0;endArrow=none;endFill=0;dashed=1;dashPattern=1 4;strokeWidth=5;fontSize=50;" edge="1" parent="1" source="4xruHLtJ7g0Ft4R3j1DA-14" target="4xruHLtJ7g0Ft4R3j1DA-33">
          <mxGeometry relative="1" as="geometry" />
        </mxCell>
        <mxCell id="4xruHLtJ7g0Ft4R3j1DA-14" value="4|&lt;font color=&quot;#ff0000&quot;&gt;3&lt;/font&gt;" style="ellipse;whiteSpace=wrap;html=1;aspect=fixed;fillColor=#fff2cc;strokeColor=#d6b656;fontSize=50;" vertex="1" parent="1">
          <mxGeometry x="2050" y="1130" width="80" height="80" as="geometry" />
        </mxCell>
        <mxCell id="4xruHLtJ7g0Ft4R3j1DA-19" value="" style="edgeStyle=none;rounded=0;orthogonalLoop=1;jettySize=auto;html=1;endArrow=none;endFill=0;fontSize=50;" edge="1" parent="1" source="4xruHLtJ7g0Ft4R3j1DA-16" target="4xruHLtJ7g0Ft4R3j1DA-18">
          <mxGeometry relative="1" as="geometry" />
        </mxCell>
        <mxCell id="4xruHLtJ7g0Ft4R3j1DA-16" value="1" style="ellipse;whiteSpace=wrap;html=1;aspect=fixed;fillColor=#d5e8d4;strokeColor=#82b366;fontSize=50;" vertex="1" parent="1">
          <mxGeometry x="960" y="820" width="80" height="80" as="geometry" />
        </mxCell>
        <mxCell id="4xruHLtJ7g0Ft4R3j1DA-22" value="" style="edgeStyle=none;rounded=0;orthogonalLoop=1;jettySize=auto;html=1;endArrow=none;endFill=0;fontSize=50;" edge="1" parent="1" source="4xruHLtJ7g0Ft4R3j1DA-18" target="4xruHLtJ7g0Ft4R3j1DA-21">
          <mxGeometry relative="1" as="geometry" />
        </mxCell>
        <mxCell id="4xruHLtJ7g0Ft4R3j1DA-18" value="2" style="ellipse;whiteSpace=wrap;html=1;aspect=fixed;fillColor=#d5e8d4;strokeColor=#82b366;fontSize=50;" vertex="1" parent="1">
          <mxGeometry x="940" y="490" width="80" height="80" as="geometry" />
        </mxCell>
        <mxCell id="4xruHLtJ7g0Ft4R3j1DA-21" value="3" style="ellipse;whiteSpace=wrap;html=1;aspect=fixed;fillColor=#d5e8d4;strokeColor=#82b366;fontSize=50;" vertex="1" parent="1">
          <mxGeometry x="1190" y="240" width="80" height="80" as="geometry" />
        </mxCell>
        <mxCell id="4xruHLtJ7g0Ft4R3j1DA-24" value="1" style="ellipse;whiteSpace=wrap;html=1;aspect=fixed;fillColor=#d5e8d4;strokeColor=#82b366;fontSize=50;" vertex="1" parent="1">
          <mxGeometry x="910" y="1130" width="80" height="80" as="geometry" />
        </mxCell>
        <mxCell id="4xruHLtJ7g0Ft4R3j1DA-26" value="3" style="ellipse;whiteSpace=wrap;html=1;aspect=fixed;fillColor=#d5e8d4;strokeColor=#82b366;fontSize=50;" vertex="1" parent="1">
          <mxGeometry x="1620" y="400" width="80" height="80" as="geometry" />
        </mxCell>
        <mxCell id="4xruHLtJ7g0Ft4R3j1DA-30" value="5|&lt;font color=&quot;#ff0000&quot;&gt;4&lt;/font&gt;" style="ellipse;whiteSpace=wrap;html=1;aspect=fixed;fillColor=#fff2cc;strokeColor=#d6b656;fontSize=50;" vertex="1" parent="1">
          <mxGeometry x="2300" y="1180" width="80" height="80" as="geometry" />
        </mxCell>
        <mxCell id="4xruHLtJ7g0Ft4R3j1DA-33" value="2" style="ellipse;whiteSpace=wrap;html=1;aspect=fixed;fillColor=#dae8fc;strokeColor=#6c8ebf;fontSize=50;fontColor=#FF0000;" vertex="1" parent="1">
          <mxGeometry x="1490" y="1320" width="80" height="80" as="geometry" />
        </mxCell>
        <mxCell id="4xruHLtJ7g0Ft4R3j1DA-36" value="" style="ellipse;whiteSpace=wrap;html=1;aspect=fixed;fillColor=#d5e8d4;strokeColor=#82b366;" vertex="1" parent="1">
          <mxGeometry x="300" y="1360" width="80" height="80" as="geometry" />
        </mxCell>
        <mxCell id="4xruHLtJ7g0Ft4R3j1DA-38" value="" style="ellipse;whiteSpace=wrap;html=1;aspect=fixed;fillColor=#dae8fc;strokeColor=#6c8ebf;" vertex="1" parent="1">
          <mxGeometry x="300" y="1460" width="80" height="80" as="geometry" />
        </mxCell>
        <mxCell id="4xruHLtJ7g0Ft4R3j1DA-39" value="" style="ellipse;whiteSpace=wrap;html=1;aspect=fixed;fillColor=#f8cecc;strokeColor=#b85450;" vertex="1" parent="1">
          <mxGeometry x="300" y="1260" width="80" height="80" as="geometry" />
        </mxCell>
        <mxCell id="4xruHLtJ7g0Ft4R3j1DA-40" value="" style="ellipse;whiteSpace=wrap;html=1;aspect=fixed;fillColor=#fff2cc;strokeColor=#d6b656;" vertex="1" parent="1">
          <mxGeometry x="300" y="1560" width="80" height="80" as="geometry" />
        </mxCell>
        <mxCell id="4xruHLtJ7g0Ft4R3j1DA-41" value="&lt;font style=&quot;font-size: 65px;&quot;&gt;Source&lt;/font&gt;" style="text;html=1;align=left;verticalAlign=middle;resizable=0;points=[];autosize=1;strokeColor=none;fillColor=none;fontSize=65;" vertex="1" parent="1">
          <mxGeometry x="420" y="1255" width="230" height="90" as="geometry" />
        </mxCell>
        <mxCell id="4xruHLtJ7g0Ft4R3j1DA-42" value="&lt;font style=&quot;font-size: 65px;&quot;&gt;Old Nodes&lt;/font&gt;" style="text;html=1;align=left;verticalAlign=middle;resizable=0;points=[];autosize=1;strokeColor=none;fillColor=none;fontSize=65;" vertex="1" parent="1">
          <mxGeometry x="420" y="1355" width="330" height="90" as="geometry" />
        </mxCell>
        <mxCell id="4xruHLtJ7g0Ft4R3j1DA-43" value="&lt;font style=&quot;font-size: 65px;&quot;&gt;New Nodes&lt;/font&gt;" style="text;html=1;align=left;verticalAlign=middle;resizable=0;points=[];autosize=1;strokeColor=none;fillColor=none;fontSize=65;" vertex="1" parent="1">
          <mxGeometry x="420" y="1455" width="360" height="90" as="geometry" />
        </mxCell>
        <mxCell id="4xruHLtJ7g0Ft4R3j1DA-44" value="Affected Nodes" style="text;html=1;align=left;verticalAlign=middle;resizable=0;points=[];autosize=1;strokeColor=none;fillColor=none;fontSize=65;" vertex="1" parent="1">
          <mxGeometry x="420" y="1555" width="470" height="90" as="geometry" />
        </mxCell>
      </root>
    </mxGraphModel>
  </diagram>
</mxfile>
